# xmcd CD database file
#
# Track frame offsets:
#	150
#	17155
#	31611
#	48621
#
# Disc length: 838 seconds
#
# Revision: 1
# Processed by: cddbd v1.5.2PL0 Copyright (c) Steve Scherf et al.
# Submitted via: CDex 1.70beta2
#
DISCID=27034404
DTITLE=CN2＆TEAR* - Bleu
DYEAR=2007
DGENRE=Doujin
TTITLE0=ヒスイリカ - Dark Angel
TTITLE1=ヒスイリカ - 青い靴
TTITLE2=Dark Angel
TTITLE3=青い靴
EXTD=YEAR: 2007
EXTT0=
EXTT1=
EXTT2=
EXTT3=
PLAYORDER=
